<?xml version="1.0" standalone="no"?><svg xmlns="http://www.w3.org/2000/svg" viewBox="0 0 1440 320"><path fill="#0099ff" fill-opacity="1" d="M0,64L8.3,58.7C16.6,53,33,43,50,74.7C66.2,107,83,181,99,192C115.9,203,132,149,149,154.7C165.5,160,182,224,199,208C215.2,192,232,96,248,80C264.8,64,281,128,298,128C314.5,128,331,64,348,37.3C364.1,11,381,21,397,58.7C413.8,96,430,160,447,165.3C463.4,171,480,117,497,133.3C513.1,149,530,235,546,229.3C562.8,224,579,128,596,106.7C612.4,85,629,139,646,181.3C662.1,224,679,256,695,266.7C711.7,277,728,267,745,245.3C761.4,224,778,192,794,170.7C811,149,828,139,844,154.7C860.7,171,877,213,894,192C910.3,171,927,85,943,74.7C960,64,977,128,993,176C1009.7,224,1026,256,1043,245.3C1059.3,235,1076,181,1092,176C1109,171,1126,213,1142,240C1158.6,267,1175,277,1192,266.7C1208.3,256,1225,224,1241,186.7C1257.9,149,1274,107,1291,112C1307.6,117,1324,171,1341,181.3C1357.2,192,1374,160,1390,170.7C1406.9,181,1423,235,1432,261.3L1440,288L1440,320L1431.7,320C1423.4,320,1407,320,1390,320C1373.8,320,1357,320,1341,320C1324.1,320,1308,320,1291,320C1274.5,320,1258,320,1241,320C1224.8,320,1208,320,1192,320C1175.2,320,1159,320,1142,320C1125.5,320,1109,320,1092,320C1075.9,320,1059,320,1043,320C1026.2,320,1010,320,993,320C976.6,320,960,320,943,320C926.9,320,910,320,894,320C877.2,320,861,320,844,320C827.6,320,811,320,794,320C777.9,320,761,320,745,320C728.3,320,712,320,695,320C678.6,320,662,320,646,320C629,320,612,320,596,320C579.3,320,563,320,546,320C529.7,320,513,320,497,320C480,320,463,320,447,320C430.3,320,414,320,397,320C380.7,320,364,320,348,320C331,320,314,320,298,320C281.4,320,265,320,248,320C231.7,320,215,320,199,320C182.1,320,166,320,149,320C132.4,320,116,320,99,320C82.8,320,66,320,50,320C33.1,320,17,320,8,320L0,320Z"></path></svg>